<?xml version="1.0" encoding="UTF-8" standalone="no"?>
<!-- Created with Inkscape (http://www.inkscape.org/) -->

<svg
   xmlns:osb="http://www.openswatchbook.org/uri/2009/osb"
   xmlns:dc="http://purl.org/dc/elements/1.1/"
   xmlns:cc="http://creativecommons.org/ns#"
   xmlns:rdf="http://www.w3.org/1999/02/22-rdf-syntax-ns#"
   xmlns:svg="http://www.w3.org/2000/svg"
   xmlns="http://www.w3.org/2000/svg"
   xmlns:sodipodi="http://sodipodi.sourceforge.net/DTD/sodipodi-0.dtd"
   xmlns:inkscape="http://www.inkscape.org/namespaces/inkscape"
   version="1.1"
   id="svg3721"
   width="211.83289"
   height="101.84023"
   viewBox="0 0 211.83289 101.84023"
   sodipodi:docname="logo_2.svg"
   inkscape:version="0.92.4 (5da689c313, 2019-01-14)">
  <metadata
     id="metadata3727">
    <rdf:RDF>
      <cc:Work
         rdf:about="">
        <dc:format>image/svg+xml</dc:format>
        <dc:type
           rdf:resource="http://purl.org/dc/dcmitype/StillImage" />
        <dc:title></dc:title>
      </cc:Work>
    </rdf:RDF>
  </metadata>
  <defs
     id="defs3725">
    <linearGradient
       id="linearGradient5274"
       osb:paint="solid">
      <stop
         style="stop-color:#ffffff;stop-opacity:1;"
         offset="0"
         id="stop5272" />
    </linearGradient>
  </defs>
  <sodipodi:namedview
     pagecolor="#ffffff"
     bordercolor="#666666"
     borderopacity="1"
     objecttolerance="10"
     gridtolerance="10"
     guidetolerance="10"
     inkscape:pageopacity="0"
     inkscape:pageshadow="2"
     inkscape:window-width="1920"
     inkscape:window-height="1013"
     id="namedview3723"
     showgrid="false"
     inkscape:zoom="2.8284271"
     inkscape:cx="23.506058"
     inkscape:cy="78.176609"
     inkscape:window-x="-9"
     inkscape:window-y="-9"
     inkscape:window-maximized="1"
     inkscape:current-layer="svg3721" />
  <path
     style="fill:#64be47;fill-opacity:1;stroke-width:0.35355338"
     d=""
     id="path4427"
     inkscape:connector-curvature="0" />
  <path
     style="fill:#64be47;fill-opacity:1;stroke-width:0.35355338"
     d=""
     id="path4441"
     inkscape:connector-curvature="0" />
  <path
     style="fill:#64be47;fill-opacity:1;stroke-width:0.35355338"
     d=""
     id="path4443"
     inkscape:connector-curvature="0" />
  <path
     style="fill:#64be47;fill-opacity:1;stroke-width:0.35355338"
     d=""
     id="path4445"
     inkscape:connector-curvature="0" />
  <path
     style="fill:#64be47;fill-opacity:1;stroke-width:0.35355338"
     d=""
     id="path4447"
     inkscape:connector-curvature="0" />
  <path
     style="fill:#64be47;fill-opacity:1;stroke-width:0.35355338"
     d=""
     id="path4449"
     inkscape:connector-curvature="0" />
  <path
     style="fill:#64be47;fill-opacity:1;stroke-width:0.35355338"
     d=""
     id="path4451"
     inkscape:connector-curvature="0" />
  <path
     style="fill:#64be47;fill-opacity:1;stroke-width:0.00390625"
     d=""
     id="path4463"
     inkscape:connector-curvature="0" />
  <g
     id="g4559"
     transform="translate(-147.48369,-102.57334)">
    <path
       sodipodi:nodetypes="cassaaccccccccccc"
       inkscape:connector-curvature="0"
       id="path3737"
       d="m 213.91287,110.9819 c -8.14377,-3.69677 -20.80222,-1.65435 -29.91685,2.47487 -7.41661,3.35996 -13.5677,9.80333 -17.56656,16.97275 -3.99887,7.16941 -7.16438,15.19507 -5.2968,24.25724 1.86757,9.06217 8.93094,19.97084 17.86665,24.94923 8.25516,4.59924 19.13043,4.24757 28.28558,1.9058 6.99244,-1.78857 13.03944,-5.1946 18.25145,-11.65002 l 15.74835,13.16595 c -5.33332,6.41264 -9.87551,11.47647 -19.68779,15.92957 -12.19169,4.32559 -26.10653,4.78556 -38.29041,1.82471 -12.73516,-5.34125 -17.43174,-8.08931 -23.51167,-14.78657 -8.88608,-11.14888 -11.4799,-18.60198 -11.80322,-25.49571 -1.03078,-4.97153 -0.68912,-12.8083 2.87276,-25.7785 5.25271,-12.84038 10.51616,-17.95396 18.52824,-23.72751 5.255,-4.19046 15.56926,-8.11907 23.64092,-8.42976 7.06488,-0.0275 15.80372,-0.3994 23.3782,3.63769 z"
       style="fill:#008000;fill-opacity:1;stroke:#000000;stroke-width:0;stroke-linecap:butt;stroke-linejoin:miter;stroke-miterlimit:4;stroke-dasharray:none;stroke-opacity:0.00497514" />
    <path
       sodipodi:nodetypes="ccccccccc"
       inkscape:connector-curvature="0"
       id="path4395"
       d="m 216.43003,106.8014 c -0.93415,1.98278 -1.97003,4.04358 -1.97003,4.04358 l 34.34309,36.84955 -18.70613,11.29397 54.92842,38.52717 2.34325,-3.5837 -24.40212,-32.39423 22.12133,-11.98141 z"
       style="fill:#000000;fill-opacity:1;stroke:#000000;stroke-width:1.0097152px;stroke-linecap:butt;stroke-linejoin:miter;stroke-opacity:1" />
    <path
       sodipodi:nodetypes="ccaascccc"
       inkscape:connector-curvature="0"
       id="path4465"
       d="m 265.82757,121.92448 21.19627,12.93691 c 18.29527,-14.84851 27.04104,-15.29307 40.03994,-10.63235 10.21646,3.66308 16.33725,15.92444 18.99008,26.44855 1.78255,7.07161 -0.77542,14.69419 -2.81126,21.69709 -3.01377,10.36681 -26.65474,35.43307 -55.34272,21.40104 l -2.9995,4.3337 c 41.83543,20.8744 76.83485,-14.04148 74.28512,-47.0515 0.16196,-31.05559 -48.20057,-69.950384 -93.35793,-29.13344 z"
       style="fill:#008000;fill-opacity:1;stroke:#000000;stroke-width:0;stroke-linecap:butt;stroke-linejoin:miter;stroke-miterlimit:4;stroke-dasharray:none;stroke-opacity:1" />
  </g>
</svg>
