<?xml version="1.0" encoding="UTF-8"?>
<svg width="165px" height="137px" viewBox="0 0 165 137" version="1.1" xmlns="http://www.w3.org/2000/svg" xmlns:xlink="http://www.w3.org/1999/xlink">
    <!-- Generator: sketchtool 52.5 (67469) - http://www.bohemiancoding.com/sketch -->
    <title>80133032-8E7C-4A46-B1D2-ED97B4DDBBA1</title>
    <desc>Created with sketchtool.</desc>
    <defs>
        <polygon id="path-1" points="0 0.062410148 79.9788584 0.062410148 79.9788584 79.8308668 0 79.8308668"></polygon>
    </defs>
    <g id="Login-(Admin)" stroke="none" stroke-width="1" fill="none" fill-rule="evenodd">
        <g id="00.1_Sign-In" transform="translate(-686.000000, -70.000000)">
            <g id="logo_login" transform="translate(686.000000, 70.000000)">
                <g id="logo" transform="translate(42.000000, 0.000000)">
                    <mask id="mask-2" fill="white">
                        <use xlink:href="#path-1"></use>
                    </mask>
                    <g id="Clip-2"></g>
                    <path d="M79.7684989,39.8834672 C79.7684989,61.912389 61.912093,79.7684567 39.8848626,79.7684567 C17.8583087,79.7684567 0,61.912389 0,39.8834672 C0,17.8550529 17.8583087,0 39.8848626,0 C61.912093,0 79.7684989,17.8550529 79.7684989,39.8834672" id="Fill-1" fill="#108EC8" mask="url(#mask-2)"></path>
                    <path d="M58.2239323,44.9532347 C56.1265116,37.3667653 70.9107822,24.9545877 76.0522622,21.9864693 C75.4800846,20.8515856 74.6929387,19.7204228 74.0226638,18.6460888 C69.2931924,23.6345032 58.4867653,33.258351 42.3414799,37.3566173 C25.559408,41.6155603 7.8191797,40.4708668 0.0268235095,39.6243552 C0.0248414376,39.7312474 -0.032637463,41.7630444 0.0268235095,42.6624947 C6.86403383,42.7331924 22.7426638,43.8564059 25.2453277,52.5515433 C27.5397886,60.5273573 22.8377167,69.000592 19.0543763,74.0795433 C19.9156025,74.6055137 20.8999577,75.1835941 21.8027907,75.6440254 C25.2243552,68.3532008 33.587315,55.3119662 49.7645666,55.3119662 C59.1861311,55.3119662 68.9288795,58.8928541 74.0649471,61.1408034 C74.6822833,60.1515433 75.2257082,59.1387738 75.7562791,58.0964059 C70.6195349,56.02926 59.909852,51.0570825 58.2239323,44.9532347" id="Fill-3" fill="#FFFFFF" mask="url(#mask-2)"></path>
                </g>
                <path d="M63.9379883,136.180664 C61.8969727,136.180664 60.6323242,134.769531 60.6323242,132.474609 C60.6323242,130.18457 61.8920898,128.773438 63.9379883,128.773438 C65.6079102,128.773438 66.887207,129.881836 66.9946289,131.415039 L65.559082,131.415039 C65.4174805,130.604492 64.777832,130.072266 63.9379883,130.072266 C62.8295898,130.072266 62.1411133,130.990234 62.1411133,132.474609 C62.1411133,133.958984 62.8295898,134.881836 63.9428711,134.881836 C64.7875977,134.881836 65.4223633,134.383789 65.5639648,133.607422 L66.9995117,133.607422 C66.8774414,135.130859 65.637207,136.180664 63.9379883,136.180664 Z M74.9663086,134.71582 L74.9663086,136 L70.3569336,136 L70.3569336,128.954102 L71.831543,128.954102 L71.831543,134.71582 L74.9663086,134.71582 Z M79.7788086,136 L78.3041992,136 L78.3041992,128.954102 L79.7788086,128.954102 L79.7788086,136 Z M84.8989258,136 L83.487793,136 L83.487793,128.954102 L84.7182617,128.954102 L87.9604492,133.34375 L88.0483398,133.34375 L88.0483398,128.954102 L89.4594727,128.954102 L89.4594727,136 L88.2387695,136 L84.9868164,131.59082 L84.8989258,131.59082 L84.8989258,136 Z M94.6430664,136 L93.168457,136 L93.168457,128.954102 L94.6430664,128.954102 L94.6430664,136 Z M101.345215,136.180664 C99.3041992,136.180664 98.0395508,134.769531 98.0395508,132.474609 C98.0395508,130.18457 99.2993164,128.773438 101.345215,128.773438 C103.015137,128.773438 104.294434,129.881836 104.401855,131.415039 L102.966309,131.415039 C102.824707,130.604492 102.185059,130.072266 101.345215,130.072266 C100.236816,130.072266 99.5483398,130.990234 99.5483398,132.474609 C99.5483398,133.958984 100.236816,134.881836 101.350098,134.881836 C102.194824,134.881836 102.82959,134.383789 102.971191,133.607422 L104.406738,133.607422 C104.284668,135.130859 103.044434,136.180664 101.345215,136.180664 Z" id="CLINIC" fill="#000000"></path>
                <g id="MINDTherapy" transform="translate(0.000000, 100.000000)">
                    <g id="Theraphy" transform="translate(66.000000, 0.000000)" fill="#000000">
                        <polygon id="Path" points="5.12068967 4.186 0.0227586343 4.186 0.0227586343 1.15 13.9055173 1.15 13.9055173 4.186 8.80758622 4.186 8.80758622 17.25 5.12068967 17.25"></polygon>
                        <path d="M23.3048276,4.692 C24.8220766,4.692 26.0472367,5.1519954 26.9803448,6.072 C27.913453,6.9920046 28.38,8.35665762 28.38,10.166 L28.38,17.25 L24.8296552,17.25 L24.8296552,10.718 C24.8296552,9.73666176 24.6172435,9.00450242 24.1924138,8.5215 C23.7675841,8.03849759 23.1531075,7.797 22.3489655,7.797 C21.4537886,7.797 20.7406923,8.07683054 20.2096552,8.6365 C19.6786181,9.19616947 19.4131035,10.0279945 19.4131035,11.132 L19.4131035,17.25 L15.8627586,17.25 L15.8627586,0.184 L19.4131035,0.184 L19.4131035,6.164 C19.8834506,5.68866429 20.4524105,5.32450127 21.12,5.0715 C21.7875896,4.81849874 22.5158581,4.692 23.3048276,4.692 Z" id="Path"></path>
                        <path d="M43.9468966,11.109 C43.9468966,11.1550002 43.9241382,11.476997 43.8786207,12.075 L34.6158621,12.075 C34.7827595,12.8416705 35.1772383,13.4473311 35.7993104,13.892 C36.4213824,14.3366689 37.1951678,14.559 38.1206897,14.559 C38.7579342,14.559 39.323101,14.4631676 39.8162069,14.2715 C40.3093128,14.0798324 40.7682738,13.7770021 41.1931035,13.363 L43.082069,15.433 C41.9289598,16.7670067 40.2448387,17.434 38.0296552,17.434 C36.6489586,17.434 35.4275915,17.1618361 34.3655173,16.6175 C33.303443,16.0731639 32.4841408,15.3180048 31.9075862,14.352 C31.3310316,13.3859952 31.0427586,12.2896728 31.0427586,11.063 C31.0427586,9.85166061 31.3272386,8.75917154 31.8962069,7.7855 C32.4651753,6.81182847 33.2465468,6.05283606 34.2403448,5.5085 C35.2341429,4.96416395 36.3455111,4.692 37.5744828,4.692 C38.7731095,4.692 39.8579262,4.95266406 40.8289655,5.474 C41.8000049,5.99533594 42.562411,6.74282847 43.1162069,7.7165 C43.6700028,8.69017154 43.9468966,9.82099356 43.9468966,11.109 Z M37.5972414,7.406 C36.7930994,7.406 36.1179338,7.6359977 35.5717242,8.096 C35.0255145,8.5560023 34.6917248,9.18466268 34.5703448,9.982 L40.6013793,9.982 C40.4799994,9.19999609 40.1462096,8.57516901 39.6,8.1075 C39.0537904,7.639831 38.3862109,7.406 37.5972414,7.406 Z" id="Combined-Shape"></path>
                        <path d="M49.9324138,6.509 C50.3572435,5.91099701 50.9299964,5.4586682 51.6506897,5.152 C52.3713829,4.8453318 53.2020643,4.692 54.1427586,4.692 L54.1427586,8.004 C53.7482739,7.97333318 53.4827593,7.958 53.3462069,7.958 C52.3296501,7.958 51.5331064,8.24549713 50.9565517,8.8205 C50.3799971,9.39550288 50.0917242,10.2579943 50.0917242,11.408 L50.0917242,17.25 L46.5413793,17.25 L46.5413793,4.876 L49.9324138,4.876 L49.9324138,6.509 Z" id="Path"></path>
                        <path d="M61.3572414,4.692 C63.2538026,4.692 64.7103398,5.14816211 65.7268966,6.0605 C66.7434534,6.9728379 67.2517242,8.3489908 67.2517242,10.189 L67.2517242,17.25 L63.9289655,17.25 L63.9289655,15.709 C63.261376,16.8590058 62.0172505,17.434 60.1965518,17.434 C59.2558574,17.434 58.4403483,17.2730016 57.75,16.951 C57.0596517,16.6289984 56.5324156,16.1843362 56.1682759,15.617 C55.8041361,15.0496638 55.622069,14.4056703 55.622069,13.685 C55.622069,12.5349943 56.0506854,11.6303366 56.9079311,10.971 C57.7651767,10.3116634 59.0889566,9.982 60.8793104,9.982 L63.7013793,9.982 C63.7013793,9.19999609 63.4662093,8.59816878 62.9958621,8.1765 C62.5255149,7.75483123 61.8200047,7.544 60.8793104,7.544 C60.2268933,7.544 59.5858652,7.64749897 58.9562069,7.8545 C58.3265486,8.06150104 57.7917264,8.34133157 57.3517242,8.694 L56.0772414,6.187 C56.744831,5.71166429 57.5451678,5.34366797 58.4782759,5.083 C59.411384,4.82233203 60.3710296,4.692 61.3572414,4.692 Z M61.084138,15.019 C61.6910375,15.019 62.2296528,14.8771681 62.7,14.5935 C63.1703472,14.3098319 63.504137,13.8920028 63.7013793,13.34 L63.7013793,12.075 L61.2662069,12.075 C59.8096479,12.075 59.0813793,12.5579952 59.0813793,13.524 C59.0813793,13.9840023 59.2596534,14.3481653 59.6162069,14.6165 C59.9727604,14.8848347 60.4620659,15.019 61.084138,15.019 Z" id="Combined-Shape"></path>
                        <path d="M77.9255173,4.692 C79.063454,4.692 80.0989609,4.95649735 81.032069,5.4855 C81.9651771,6.01450264 82.6972388,6.75816187 83.2282759,7.7165 C83.759313,8.67483812 84.0248276,9.79032697 84.0248276,11.063 C84.0248276,12.335673 83.759313,13.4511619 83.2282759,14.4095 C82.6972388,15.3678381 81.9651771,16.1114974 81.032069,16.6405 C80.0989609,17.1695026 79.063454,17.434 77.9255173,17.434 C76.3627508,17.434 75.1337976,16.9356716 74.2386207,15.939 L74.2386207,21.712 L70.6882759,21.712 L70.6882759,4.876 L74.0793104,4.876 L74.0793104,6.302 C74.9593148,5.2286613 76.2413709,4.692 77.9255173,4.692 Z M77.3110345,14.49 C78.2213839,14.49 78.9686178,14.1795031 79.5527587,13.5585 C80.1368995,12.9374969 80.4289655,12.1056719 80.4289655,11.063 C80.4289655,10.0203281 80.1368995,9.18850311 79.5527587,8.5675 C78.9686178,7.9464969 78.2213839,7.636 77.3110345,7.636 C76.4006851,7.636 75.6534512,7.9464969 75.0693104,8.5675 C74.4851695,9.18850311 74.1931035,10.0203281 74.1931035,11.063 C74.1931035,12.1056719 74.4851695,12.9374969 75.0693104,13.5585 C75.6534512,14.1795031 76.4006851,14.49 77.3110345,14.49 Z" id="Combined-Shape"></path>
                        <path d="M98.7724138,4.876 L93.242069,18.009 C92.6806869,19.4350071 91.9865559,20.4393304 91.1596552,21.022 C90.3327545,21.6046696 89.3351783,21.896 88.1668966,21.896 C87.529652,21.896 86.9000031,21.7963343 86.2779311,21.597 C85.655859,21.3976657 85.1475882,21.1216684 84.7531035,20.769 L86.0503449,18.216 C86.3234497,18.4613346 86.6382741,18.6529993 86.9948276,18.791 C87.3513811,18.9290007 87.7041362,18.998 88.0531035,18.998 C88.5386232,18.998 88.933102,18.8791679 89.2365518,18.6415 C89.5400016,18.4038321 89.8131023,18.0090028 90.0558621,17.457 L90.1013793,17.342 L84.7986207,4.876 L88.4627587,4.876 L91.8993104,13.271 L95.3586207,4.876 L98.7724138,4.876 Z" id="Path"></path>
                    </g>
                    <g id="MIND" transform="translate(0.000000, 1.150000)" fill="#108EC8">
                        <path d="M15.2482759,16.1 L15.2255172,6.44 L10.5372414,14.398 L8.87586207,14.398 L4.21034483,6.647 L4.21034483,16.1 L0.751034483,16.1 L0.751034483,0 L3.80068966,0 L9.76344828,10.005 L15.6351724,0 L18.662069,0 L18.7075862,16.1 L15.2482759,16.1 Z M22.7131035,0 L26.4,0 L26.4,16.1 L22.7131035,16.1 L22.7131035,0 Z M45.0165517,0 L45.0165517,16.1 L41.9896552,16.1 L34.0468966,6.325 L34.0468966,16.1 L30.4055172,16.1 L30.4055172,0 L33.4551724,0 L41.3751724,9.775 L41.3751724,0 L45.0165517,0 Z M49.022069,0 L56.2593104,0 C57.9889742,0 59.5175796,0.333496665 60.8451724,1.0005 C62.1727653,1.66750334 63.2044791,2.60666061 63.9403448,3.818 C64.6762106,5.02933939 65.0441379,6.43999195 65.0441379,8.05 C65.0441379,9.66000805 64.6762106,11.0706606 63.9403448,12.282 C63.2044791,13.4933394 62.1727653,14.4324967 60.8451724,15.0995 C59.5175796,15.7665033 57.9889742,16.1 56.2593104,16.1 L49.022069,16.1 L49.022069,0 Z M56.0772414,13.041 C57.6703528,13.041 58.9410298,12.5925045 59.8893104,11.6955 C60.837591,10.7984955 61.3117241,9.583341 61.3117241,8.05 C61.3117241,6.516659 60.837591,5.30150449 59.8893104,4.4045 C58.9410298,3.50749552 57.6703528,3.059 56.0772414,3.059 L52.7089655,3.059 L52.7089655,13.041 L56.0772414,13.041 Z" id="MINDTherapy"></path>
                    </g>
                </g>
            </g>
        </g>
    </g>
</svg>