<?xml version="1.0" encoding="utf-8"?>
<!-- Generator: Adobe Illustrator 23.0.1, SVG Export Plug-In . SVG Version: 6.00 Build 0)  -->
<svg version="1.1" id="Layer_2" xmlns="http://www.w3.org/2000/svg" xmlns:xlink="http://www.w3.org/1999/xlink" x="0px" y="0px"
	 viewBox="0 0 270 35" style="enable-background:new 0 0 270 35;" xml:space="preserve">
<style type="text/css">
	.st0{fill:#000000;}
	.st1{fill:#EC7700;}
	.st2{fill:#FFB71B;}
	.st3{fill:#68813C;}
	.st4{fill:#999A32;}
</style>
<g>
	<path class="st0" d="M178.8,30.8L178.8,30.8L178.8,30.8l-5.2,0V18.3l0,0v-0.3c0-1.2-1-2.2-2.2-2.2h-1.9v18.6H181V33
		C181,31.8,180,30.8,178.8,30.8z"/>
	<path class="st0" d="M240.4,15.9v14.5h0v1.4c0,1.5,1.2,2.7,2.7,2.7v0h1.3V15.9H240.4z"/>
	<path class="st0" d="M269.2,29.3C269.2,29.3,269.2,29.3,269.2,29.3l0-0.2h0c-0.1-0.9-0.8-1.6-1.7-1.6v0h-2.3v3
		c0,0.2-0.1,0.3-0.3,0.3h-4c-0.2,0-0.3-0.1-0.3-0.3V19.9c0-0.2,0.1-0.3,0.3-0.3h4c0.2,0,0.3,0.1,0.3,0.3v2.6h4V19
		c0-1.7-1.4-3.1-3.1-3.1h-7.7c-1.7,0-1.8,0-1.8,1.8v13.8c0,1.7,1.4,3.1,3.1,3.1h8.3c1.2,0,1.2,0,1.2-1.2v-3.2h0V29.3z"/>
	<path class="st0" d="M228.4,26.1C228.4,26.1,228.4,26.1,228.4,26.1l0-0.1h0c-0.1-0.9-0.8-1.6-1.7-1.6h-0.1v0h-4.8v3.5h2.6v2.7
		c0,0.2-0.1,0.3-0.3,0.3H220c-0.2,0-0.3-0.1-0.3-0.3V19.9c0-0.2,0.1-0.3,0.3-0.3h4.1c0.2,0,0.3,0.1,0.3,0.3v1.9h4V19
		c0-1.7-1.4-3.1-3.1-3.1h-8.5c-1.1,0-1.1-0.1-1.1,1.1v14.5c0,1.7,1.4,3.1,3.1,3.1h7.8c1.7,0,1.8-0.1,1.8-1.8V27h0V26.1z"/>
	<path class="st0" d="M202.8,34.5h-9.2c-1.7,0-3.1-1.4-3.1-3.1V16.9c0-0.9,0-1,0.8-1h9.1c1.7,0,3.1,1.4,3.1,3.1v14.5
		C203.6,34.3,203.6,34.5,202.8,34.5z M199.2,19.6h-4.4c-0.2,0-0.3,0.1-0.3,0.3v10.7c0,0.2,0.1,0.3,0.3,0.3h4.4
		c0.2,0,0.3-0.1,0.3-0.3V19.9C199.5,19.7,199.4,19.6,199.2,19.6z"/>
	<path class="st0" d="M90.5,27.7h0.2c1.4,0,1.6-0.1,1.6-1.7l0-7c0-1.7-1.4-3.1-3.1-3.1h-10v17.2h0c0,0.8,0.7,1.4,1.5,1.5v0h2.5v-6.8
		l2.7,0l3.2,6.8h4.5L90.5,27.7z M88.3,23.7c0,0.2-0.1,0.3-0.3,0.3h-4.7v-4.4H88c0.2,0,0.3,0.1,0.3,0.3V23.7z"/>
	<path class="st0" d="M64.3,15.9h-10v17.2h0c0,0.8,0.7,1.4,1.5,1.5v0h0c0,0,0,0,0,0h0.1v0h2.4v-6.8l8,0c0.9,0,1-0.2,1-1.2l0-7.6
		C67.4,17.2,66,15.9,64.3,15.9z M63.3,23.7c0,0.2-0.1,0.3-0.3,0.3h-4.7v-4.4H63c0.2,0,0.3,0.1,0.3,0.3V23.7z"/>
	<path class="st0" d="M105.5,15.9v16c0,1.5,1.2,2.7,2.7,2.7v0h1.4V15.9H105.5z"/>
	<path class="st0" d="M126.2,30.9l7.7-11.3v-1.3c0-1.3-1-2.4-2.3-2.4v0h-10v3.7h7.5l-7.6,11.3v2.2h0c0,0.8,0.7,1.4,1.5,1.5v0H134
		v-3.7H126.2z"/>
	<path class="st0" d="M148.6,30.8v-4h6.9v-3.7h-6.9v-3.6h7.5l0.1,0v-1.5c0-1.2-0.9-2.1-2.1-2.2v0h-9.5v17.2h0c0,0.8,0.7,1.4,1.5,1.5
		v0h10.1v-3.7H148.6z"/>
</g>
<g>
	<path class="st1" d="M19.5,24.5l15.7,9.8c0.2,0.1,0.5,0.2,0.7,0.2c0.2,0,0.4-0.1,0.6-0.2c0.4-0.2,0.7-0.7,0.7-1.2V16.8
		C29,16.8,23.9,20.5,19.5,24.5z"/>
	<path class="st2" d="M36.6,15.5L20.1,5.3c-0.5-0.3-1.2-0.3-1.7,0L2.1,15.5c-0.4,0.2-0.6,0.7-0.6,1.1v16.6c0,0.5,0.3,0.9,0.7,1.2
		c0.2,0.1,0.4,0.1,0.6,0.1c0,0,0.1,0,0.1,0c7.2-0.1,11.5-5.2,16.7-10c4.4-4,9.5-7.7,17.7-7.7v-0.2C37.2,16.1,37,15.7,36.6,15.5z"/>
	<path class="st3" d="M11.7,5.1V2.8l0-0.1V2.3c0,0,0,0,0,0c0,0,0-0.1,0-0.1V2.1l0,0c0,0,0-0.1,0-0.1c0.1-0.9,0.7-1.5,2-1.5
		c0.5,0,2.6,0,2.6,0l0,2.3v0v0c0,0.1,0,0.1,0,0.2v0.2c0,0.6-0.2,1.1-0.5,1.5c-0.3,0.3-0.7,0.5-1.3,0.5C14.2,5.1,12.4,5.1,11.7,5.1"
		/>
	<path class="st4" d="M9.4,8.8H5.2L5,8.8H4.4c0,0,0,0-0.1,0c-0.1,0-0.1,0-0.2,0H4h0c-0.1,0-0.2,0-0.2,0C2.1,8.6,1,7.6,1,5.2
		c0-1,0-4.7,0-4.7h4.2h0h0c0.1,0,0.3,0,0.4,0h0.3c1.1,0.1,2,0.3,2.6,1C9,1.9,9.4,2.6,9.4,3.7C9.4,4.4,9.4,7.7,9.4,8.8"/>
</g>
</svg>
